<mxfile host="app.diagrams.net" modified="2023-04-26T10:31:43.656Z" agent="Mozilla/5.0 (Windows NT 10.0; Win64; x64) AppleWebKit/537.36 (KHTML, like Gecko) Chrome/112.0.0.0 Safari/537.36" etag="jLets1aWhF01eJgBI7vW" version="21.2.1" type="github">
  <diagram name="Pagina-1" id="hnmCWU9LvwypDXKiZxpy">
    <mxGraphModel dx="2584" dy="795" grid="1" gridSize="10" guides="1" tooltips="1" connect="1" arrows="1" fold="1" page="1" pageScale="1" pageWidth="827" pageHeight="1169" math="0" shadow="0">
      <root>
        <mxCell id="0" />
        <mxCell id="1" parent="0" />
        <mxCell id="IiXShuAjWkJ-amn_LctJ-1" value="Service 1" style="sketch=0;html=1;dashed=0;whitespace=wrap;fillColor=#2875E2;strokeColor=#ffffff;points=[[0.005,0.63,0],[0.1,0.2,0],[0.9,0.2,0],[0.5,0,0],[0.995,0.63,0],[0.72,0.99,0],[0.5,1,0],[0.28,0.99,0]];verticalLabelPosition=bottom;align=center;verticalAlign=top;shape=mxgraph.kubernetes.icon;prIcon=pod;flipV=0;" vertex="1" parent="1">
          <mxGeometry x="60" y="240" width="50" height="48" as="geometry" />
        </mxCell>
        <mxCell id="IiXShuAjWkJ-amn_LctJ-2" value="Service 2" style="sketch=0;html=1;dashed=0;whitespace=wrap;fillColor=#2875E2;strokeColor=#ffffff;points=[[0.005,0.63,0],[0.1,0.2,0],[0.9,0.2,0],[0.5,0,0],[0.995,0.63,0],[0.72,0.99,0],[0.5,1,0],[0.28,0.99,0]];verticalLabelPosition=bottom;align=center;verticalAlign=top;shape=mxgraph.kubernetes.icon;prIcon=pod;flipV=0;" vertex="1" parent="1">
          <mxGeometry x="60" y="330" width="50" height="48" as="geometry" />
        </mxCell>
        <mxCell id="IiXShuAjWkJ-amn_LctJ-3" value="Service 3" style="sketch=0;html=1;dashed=0;whitespace=wrap;fillColor=#2875E2;strokeColor=#ffffff;points=[[0.005,0.63,0],[0.1,0.2,0],[0.9,0.2,0],[0.5,0,0],[0.995,0.63,0],[0.72,0.99,0],[0.5,1,0],[0.28,0.99,0]];verticalLabelPosition=bottom;align=center;verticalAlign=top;shape=mxgraph.kubernetes.icon;prIcon=pod;flipV=0;" vertex="1" parent="1">
          <mxGeometry x="60" y="420" width="50" height="48" as="geometry" />
        </mxCell>
        <mxCell id="IiXShuAjWkJ-amn_LctJ-4" value="HashiCorp &lt;br&gt;Vault" style="outlineConnect=0;dashed=0;verticalLabelPosition=bottom;verticalAlign=top;align=center;html=1;shape=mxgraph.aws3.vault;fillColor=#E05243;gradientColor=none;" vertex="1" parent="1">
          <mxGeometry x="470" y="170" width="54" height="75" as="geometry" />
        </mxCell>
        <mxCell id="IiXShuAjWkJ-amn_LctJ-5" value="HashiCorp&lt;br&gt;Consul" style="sketch=0;outlineConnect=0;fontColor=#232F3E;gradientColor=none;fillColor=#3F8624;strokeColor=none;dashed=0;verticalLabelPosition=bottom;verticalAlign=top;align=center;html=1;fontSize=12;fontStyle=0;aspect=fixed;pointerEvents=1;shape=mxgraph.aws4.vault;" vertex="1" parent="1">
          <mxGeometry x="-100" y="120" width="55.64" height="70" as="geometry" />
        </mxCell>
        <mxCell id="IiXShuAjWkJ-amn_LctJ-6" value="" style="endArrow=classic;html=1;rounded=0;entryX=0.005;entryY=0.63;entryDx=0;entryDy=0;entryPerimeter=0;edgeStyle=orthogonalEdgeStyle;" edge="1" parent="1" source="IiXShuAjWkJ-amn_LctJ-5" target="IiXShuAjWkJ-amn_LctJ-1">
          <mxGeometry width="50" height="50" relative="1" as="geometry">
            <mxPoint x="-10" y="260" as="sourcePoint" />
            <mxPoint x="40" y="210" as="targetPoint" />
            <Array as="points">
              <mxPoint x="10" y="155" />
              <mxPoint x="10" y="270" />
            </Array>
          </mxGeometry>
        </mxCell>
        <mxCell id="IiXShuAjWkJ-amn_LctJ-7" value="" style="endArrow=classic;html=1;rounded=0;entryX=0.005;entryY=0.63;entryDx=0;entryDy=0;entryPerimeter=0;edgeStyle=orthogonalEdgeStyle;" edge="1" parent="1" target="IiXShuAjWkJ-amn_LctJ-2">
          <mxGeometry width="50" height="50" relative="1" as="geometry">
            <mxPoint x="10" y="270" as="sourcePoint" />
            <mxPoint x="30" y="350" as="targetPoint" />
            <Array as="points">
              <mxPoint x="10" y="360" />
            </Array>
          </mxGeometry>
        </mxCell>
        <mxCell id="IiXShuAjWkJ-amn_LctJ-8" value="" style="endArrow=classic;html=1;rounded=0;entryX=0.005;entryY=0.63;entryDx=0;entryDy=0;entryPerimeter=0;edgeStyle=orthogonalEdgeStyle;" edge="1" parent="1">
          <mxGeometry width="50" height="50" relative="1" as="geometry">
            <mxPoint x="10" y="360" as="sourcePoint" />
            <mxPoint x="60" y="450" as="targetPoint" />
            <Array as="points">
              <mxPoint x="10" y="450" />
            </Array>
          </mxGeometry>
        </mxCell>
        <mxCell id="IiXShuAjWkJ-amn_LctJ-9" value="Configs" style="text;html=1;align=center;verticalAlign=middle;resizable=0;points=[];autosize=1;strokeColor=none;fillColor=none;" vertex="1" parent="1">
          <mxGeometry x="-60" y="318" width="60" height="30" as="geometry" />
        </mxCell>
        <mxCell id="IiXShuAjWkJ-amn_LctJ-10" value="Transactions_chan" style="rounded=1;whiteSpace=wrap;html=1;" vertex="1" parent="1">
          <mxGeometry x="200" y="348" width="140" height="22" as="geometry" />
        </mxCell>
        <mxCell id="IiXShuAjWkJ-amn_LctJ-12" value="" style="endArrow=classic;html=1;rounded=0;strokeWidth=2;exitX=0.995;exitY=0.63;exitDx=0;exitDy=0;exitPerimeter=0;entryX=0;entryY=0.5;entryDx=0;entryDy=0;edgeStyle=orthogonalEdgeStyle;" edge="1" parent="1" source="IiXShuAjWkJ-amn_LctJ-1" target="IiXShuAjWkJ-amn_LctJ-10">
          <mxGeometry width="50" height="50" relative="1" as="geometry">
            <mxPoint x="240" y="290" as="sourcePoint" />
            <mxPoint x="290" y="240" as="targetPoint" />
          </mxGeometry>
        </mxCell>
        <mxCell id="IiXShuAjWkJ-amn_LctJ-13" value="" style="endArrow=classic;html=1;rounded=0;strokeWidth=2;exitX=0.995;exitY=0.63;exitDx=0;exitDy=0;exitPerimeter=0;entryX=0;entryY=0.5;entryDx=0;entryDy=0;edgeStyle=orthogonalEdgeStyle;" edge="1" parent="1" source="IiXShuAjWkJ-amn_LctJ-3" target="IiXShuAjWkJ-amn_LctJ-10">
          <mxGeometry width="50" height="50" relative="1" as="geometry">
            <mxPoint x="120" y="280" as="sourcePoint" />
            <mxPoint x="300" y="250" as="targetPoint" />
          </mxGeometry>
        </mxCell>
        <mxCell id="IiXShuAjWkJ-amn_LctJ-14" value="" style="endArrow=classic;html=1;rounded=0;strokeWidth=2;exitX=0.995;exitY=0.63;exitDx=0;exitDy=0;exitPerimeter=0;entryX=0;entryY=0.5;entryDx=0;entryDy=0;edgeStyle=orthogonalEdgeStyle;" edge="1" parent="1" source="IiXShuAjWkJ-amn_LctJ-2" target="IiXShuAjWkJ-amn_LctJ-10">
          <mxGeometry width="50" height="50" relative="1" as="geometry">
            <mxPoint x="130" y="290" as="sourcePoint" />
            <mxPoint x="310" y="260" as="targetPoint" />
          </mxGeometry>
        </mxCell>
        <mxCell id="IiXShuAjWkJ-amn_LctJ-15" value="Transactor" style="sketch=0;html=1;dashed=0;whitespace=wrap;fillColor=#2875E2;strokeColor=#ffffff;points=[[0.005,0.63,0],[0.1,0.2,0],[0.9,0.2,0],[0.5,0,0],[0.995,0.63,0],[0.72,0.99,0],[0.5,1,0],[0.28,0.99,0]];verticalLabelPosition=bottom;align=center;verticalAlign=top;shape=mxgraph.kubernetes.icon;prIcon=pod;flipV=0;" vertex="1" parent="1">
          <mxGeometry x="400" y="335" width="50" height="48" as="geometry" />
        </mxCell>
        <mxCell id="IiXShuAjWkJ-amn_LctJ-16" value="" style="endArrow=classic;html=1;rounded=0;strokeWidth=2;exitX=1;exitY=0.5;exitDx=0;exitDy=0;" edge="1" parent="1" source="IiXShuAjWkJ-amn_LctJ-10" target="IiXShuAjWkJ-amn_LctJ-15">
          <mxGeometry width="50" height="50" relative="1" as="geometry">
            <mxPoint x="320" y="430" as="sourcePoint" />
            <mxPoint x="400" y="360" as="targetPoint" />
          </mxGeometry>
        </mxCell>
        <mxCell id="IiXShuAjWkJ-amn_LctJ-18" value="" style="sketch=0;outlineConnect=0;fontColor=#232F3E;gradientColor=none;fillColor=#D45B07;strokeColor=none;dashed=0;verticalLabelPosition=bottom;verticalAlign=top;align=center;html=1;fontSize=12;fontStyle=0;aspect=fixed;shape=mxgraph.aws4.blockchain_resource;" vertex="1" parent="1">
          <mxGeometry x="640" y="348" width="78" height="23" as="geometry" />
        </mxCell>
        <mxCell id="IiXShuAjWkJ-amn_LctJ-19" value="" style="endArrow=classic;startArrow=classic;html=1;rounded=0;exitX=0.5;exitY=0;exitDx=0;exitDy=0;exitPerimeter=0;entryX=0;entryY=0.5;entryDx=0;entryDy=0;entryPerimeter=0;edgeStyle=orthogonalEdgeStyle;strokeWidth=2;" edge="1" parent="1" source="IiXShuAjWkJ-amn_LctJ-15" target="IiXShuAjWkJ-amn_LctJ-4">
          <mxGeometry width="50" height="50" relative="1" as="geometry">
            <mxPoint x="390" y="280" as="sourcePoint" />
            <mxPoint x="440" y="230" as="targetPoint" />
          </mxGeometry>
        </mxCell>
        <mxCell id="IiXShuAjWkJ-amn_LctJ-20" value="Sign Transaction" style="edgeLabel;html=1;align=center;verticalAlign=middle;resizable=0;points=[];" vertex="1" connectable="0" parent="IiXShuAjWkJ-amn_LctJ-19">
          <mxGeometry x="-0.1143" y="1" relative="1" as="geometry">
            <mxPoint x="1" y="31" as="offset" />
          </mxGeometry>
        </mxCell>
        <mxCell id="IiXShuAjWkJ-amn_LctJ-21" value="" style="endArrow=classic;html=1;rounded=0;strokeWidth=2;" edge="1" parent="1" target="IiXShuAjWkJ-amn_LctJ-18">
          <mxGeometry width="50" height="50" relative="1" as="geometry">
            <mxPoint x="450" y="360" as="sourcePoint" />
            <mxPoint x="560" y="340" as="targetPoint" />
          </mxGeometry>
        </mxCell>
        <mxCell id="IiXShuAjWkJ-amn_LctJ-22" value="Execute" style="edgeLabel;html=1;align=center;verticalAlign=middle;resizable=0;points=[];" vertex="1" connectable="0" parent="IiXShuAjWkJ-amn_LctJ-21">
          <mxGeometry x="-0.1068" y="1" relative="1" as="geometry">
            <mxPoint as="offset" />
          </mxGeometry>
        </mxCell>
        <mxCell id="IiXShuAjWkJ-amn_LctJ-23" value="Service 3" style="sketch=0;html=1;dashed=0;whitespace=wrap;fillColor=#2875E2;strokeColor=#ffffff;points=[[0.005,0.63,0],[0.1,0.2,0],[0.9,0.2,0],[0.5,0,0],[0.995,0.63,0],[0.72,0.99,0],[0.5,1,0],[0.28,0.99,0]];verticalLabelPosition=bottom;align=center;verticalAlign=top;shape=mxgraph.kubernetes.icon;prIcon=pod;flipV=0;" vertex="1" parent="1">
          <mxGeometry x="10" y="600" width="50" height="48" as="geometry" />
        </mxCell>
        <mxCell id="IiXShuAjWkJ-amn_LctJ-24" value="Transactor" style="sketch=0;html=1;dashed=0;whitespace=wrap;fillColor=#2875E2;strokeColor=#ffffff;points=[[0.005,0.63,0],[0.1,0.2,0],[0.9,0.2,0],[0.5,0,0],[0.995,0.63,0],[0.72,0.99,0],[0.5,1,0],[0.28,0.99,0]];verticalLabelPosition=bottom;align=center;verticalAlign=top;shape=mxgraph.kubernetes.icon;prIcon=pod;flipV=0;" vertex="1" parent="1">
          <mxGeometry x="317" y="600" width="50" height="48" as="geometry" />
        </mxCell>
        <mxCell id="IiXShuAjWkJ-amn_LctJ-25" value="HashiCorp &lt;br&gt;Vault" style="outlineConnect=0;dashed=0;verticalLabelPosition=bottom;verticalAlign=top;align=center;html=1;shape=mxgraph.aws3.vault;fillColor=#E05243;gradientColor=none;" vertex="1" parent="1">
          <mxGeometry x="469" y="573" width="54" height="75" as="geometry" />
        </mxCell>
        <mxCell id="IiXShuAjWkJ-amn_LctJ-26" value="" style="sketch=0;outlineConnect=0;fontColor=#232F3E;gradientColor=none;fillColor=#D45B07;strokeColor=none;dashed=0;verticalLabelPosition=bottom;verticalAlign=top;align=center;html=1;fontSize=12;fontStyle=0;aspect=fixed;shape=mxgraph.aws4.blockchain_resource;" vertex="1" parent="1">
          <mxGeometry x="610" y="612.5" width="78" height="23" as="geometry" />
        </mxCell>
        <mxCell id="IiXShuAjWkJ-amn_LctJ-27" value="Kafka" style="sketch=0;points=[[0,0,0],[0.25,0,0],[0.5,0,0],[0.75,0,0],[1,0,0],[0,1,0],[0.25,1,0],[0.5,1,0],[0.75,1,0],[1,1,0],[0,0.25,0],[0,0.5,0],[0,0.75,0],[1,0.25,0],[1,0.5,0],[1,0.75,0]];outlineConnect=0;fontColor=#232F3E;gradientColor=#945DF2;gradientDirection=north;fillColor=#5A30B5;strokeColor=#ffffff;dashed=0;verticalLabelPosition=bottom;verticalAlign=top;align=center;html=1;fontSize=12;fontStyle=0;aspect=fixed;shape=mxgraph.aws4.resourceIcon;resIcon=mxgraph.aws4.managed_streaming_for_kafka;" vertex="1" parent="1">
          <mxGeometry x="164" y="600" width="50" height="50" as="geometry" />
        </mxCell>
        <mxCell id="IiXShuAjWkJ-amn_LctJ-28" value="" style="rounded=0;whiteSpace=wrap;html=1;" vertex="1" parent="1">
          <mxGeometry x="30" y="680" width="10" height="100" as="geometry" />
        </mxCell>
        <mxCell id="IiXShuAjWkJ-amn_LctJ-29" value="" style="endArrow=classic;html=1;rounded=0;entryX=0.071;entryY=0.403;entryDx=0;entryDy=0;entryPerimeter=0;" edge="1" parent="1" target="IiXShuAjWkJ-amn_LctJ-28">
          <mxGeometry width="50" height="50" relative="1" as="geometry">
            <mxPoint x="-70" y="720" as="sourcePoint" />
            <mxPoint x="-20" y="670" as="targetPoint" />
          </mxGeometry>
        </mxCell>
        <mxCell id="IiXShuAjWkJ-amn_LctJ-30" value="" style="rounded=0;whiteSpace=wrap;html=1;" vertex="1" parent="1">
          <mxGeometry x="184" y="730" width="10" height="100" as="geometry" />
        </mxCell>
        <mxCell id="IiXShuAjWkJ-amn_LctJ-31" value="" style="endArrow=classic;html=1;rounded=0;exitX=1.04;exitY=0.652;exitDx=0;exitDy=0;exitPerimeter=0;entryX=0.08;entryY=0.144;entryDx=0;entryDy=0;entryPerimeter=0;" edge="1" parent="1" source="IiXShuAjWkJ-amn_LctJ-28" target="IiXShuAjWkJ-amn_LctJ-30">
          <mxGeometry width="50" height="50" relative="1" as="geometry">
            <mxPoint x="80" y="780" as="sourcePoint" />
            <mxPoint x="130" y="730" as="targetPoint" />
          </mxGeometry>
        </mxCell>
        <mxCell id="IiXShuAjWkJ-amn_LctJ-32" value="&lt;font style=&quot;font-size: 9px;&quot;&gt;Transaction&lt;/font&gt;" style="edgeLabel;html=1;align=center;verticalAlign=middle;resizable=0;points=[];" vertex="1" connectable="0" parent="IiXShuAjWkJ-amn_LctJ-31">
          <mxGeometry x="0.0748" relative="1" as="geometry">
            <mxPoint as="offset" />
          </mxGeometry>
        </mxCell>
        <mxCell id="IiXShuAjWkJ-amn_LctJ-33" value="" style="rounded=0;whiteSpace=wrap;html=1;" vertex="1" parent="1">
          <mxGeometry x="337" y="760" width="13" height="180" as="geometry" />
        </mxCell>
        <mxCell id="IiXShuAjWkJ-amn_LctJ-34" value="" style="endArrow=classic;html=1;rounded=0;exitX=0.953;exitY=0.485;exitDx=0;exitDy=0;entryX=-0.09;entryY=0.102;entryDx=0;entryDy=0;entryPerimeter=0;exitPerimeter=0;" edge="1" parent="1" source="IiXShuAjWkJ-amn_LctJ-30" target="IiXShuAjWkJ-amn_LctJ-33">
          <mxGeometry width="50" height="50" relative="1" as="geometry">
            <mxPoint x="194" y="780.5" as="sourcePoint" />
            <mxPoint x="339" y="779.5" as="targetPoint" />
          </mxGeometry>
        </mxCell>
        <mxCell id="IiXShuAjWkJ-amn_LctJ-35" value="&lt;font style=&quot;font-size: 9px;&quot;&gt;Consume transactions&lt;/font&gt;" style="edgeLabel;html=1;align=center;verticalAlign=middle;resizable=0;points=[];" vertex="1" connectable="0" parent="IiXShuAjWkJ-amn_LctJ-34">
          <mxGeometry x="0.0748" relative="1" as="geometry">
            <mxPoint x="-1" as="offset" />
          </mxGeometry>
        </mxCell>
        <mxCell id="IiXShuAjWkJ-amn_LctJ-36" value="" style="endArrow=classic;html=1;rounded=0;entryX=0;entryY=0.25;entryDx=0;entryDy=0;exitX=0.936;exitY=0.195;exitDx=0;exitDy=0;exitPerimeter=0;" edge="1" parent="1" source="IiXShuAjWkJ-amn_LctJ-33" target="IiXShuAjWkJ-amn_LctJ-37">
          <mxGeometry width="50" height="50" relative="1" as="geometry">
            <mxPoint x="347" y="790" as="sourcePoint" />
            <mxPoint x="397" y="740" as="targetPoint" />
          </mxGeometry>
        </mxCell>
        <mxCell id="IiXShuAjWkJ-amn_LctJ-38" value="&lt;font style=&quot;font-size: 9px;&quot;&gt;Request Sign&lt;/font&gt;" style="edgeLabel;html=1;align=center;verticalAlign=middle;resizable=0;points=[];" vertex="1" connectable="0" parent="IiXShuAjWkJ-amn_LctJ-36">
          <mxGeometry x="0.099" relative="1" as="geometry">
            <mxPoint as="offset" />
          </mxGeometry>
        </mxCell>
        <mxCell id="IiXShuAjWkJ-amn_LctJ-37" value="" style="rounded=0;whiteSpace=wrap;html=1;" vertex="1" parent="1">
          <mxGeometry x="491" y="770" width="10" height="100" as="geometry" />
        </mxCell>
        <mxCell id="IiXShuAjWkJ-amn_LctJ-39" value="" style="endArrow=classic;html=1;rounded=0;exitX=1.045;exitY=0.383;exitDx=0;exitDy=0;exitPerimeter=0;edgeStyle=elbowEdgeStyle;entryX=1;entryY=0.75;entryDx=0;entryDy=0;elbow=vertical;" edge="1" parent="1" source="IiXShuAjWkJ-amn_LctJ-37" target="IiXShuAjWkJ-amn_LctJ-37">
          <mxGeometry width="50" height="50" relative="1" as="geometry">
            <mxPoint x="520" y="830" as="sourcePoint" />
            <mxPoint x="550" y="810" as="targetPoint" />
            <Array as="points">
              <mxPoint x="540" y="830" />
              <mxPoint x="550" y="810" />
            </Array>
          </mxGeometry>
        </mxCell>
        <mxCell id="IiXShuAjWkJ-amn_LctJ-40" value="Sign" style="edgeLabel;html=1;align=center;verticalAlign=middle;resizable=0;points=[];" vertex="1" connectable="0" parent="IiXShuAjWkJ-amn_LctJ-39">
          <mxGeometry x="0.0389" relative="1" as="geometry">
            <mxPoint y="1" as="offset" />
          </mxGeometry>
        </mxCell>
        <mxCell id="IiXShuAjWkJ-amn_LctJ-41" value="" style="endArrow=classic;html=1;rounded=0;exitX=-0.1;exitY=0.862;exitDx=0;exitDy=0;exitPerimeter=0;entryX=1.043;entryY=0.533;entryDx=0;entryDy=0;entryPerimeter=0;" edge="1" parent="1" source="IiXShuAjWkJ-amn_LctJ-37" target="IiXShuAjWkJ-amn_LctJ-33">
          <mxGeometry width="50" height="50" relative="1" as="geometry">
            <mxPoint x="380" y="900" as="sourcePoint" />
            <mxPoint x="360" y="860" as="targetPoint" />
          </mxGeometry>
        </mxCell>
        <mxCell id="IiXShuAjWkJ-amn_LctJ-42" value="&lt;font style=&quot;font-size: 9px;&quot;&gt;Signed transaction&lt;/font&gt;" style="edgeLabel;html=1;align=center;verticalAlign=middle;resizable=0;points=[];" vertex="1" connectable="0" parent="IiXShuAjWkJ-amn_LctJ-41">
          <mxGeometry x="-0.1673" relative="1" as="geometry">
            <mxPoint x="-7" as="offset" />
          </mxGeometry>
        </mxCell>
        <mxCell id="IiXShuAjWkJ-amn_LctJ-43" value="" style="rounded=0;whiteSpace=wrap;html=1;" vertex="1" parent="1">
          <mxGeometry x="644" y="900" width="10" height="40" as="geometry" />
        </mxCell>
        <mxCell id="IiXShuAjWkJ-amn_LctJ-44" value="" style="endArrow=classic;html=1;rounded=0;entryX=0;entryY=0.25;entryDx=0;entryDy=0;exitX=1.044;exitY=0.829;exitDx=0;exitDy=0;exitPerimeter=0;" edge="1" parent="1" source="IiXShuAjWkJ-amn_LctJ-33" target="IiXShuAjWkJ-amn_LctJ-43">
          <mxGeometry width="50" height="50" relative="1" as="geometry">
            <mxPoint x="360" y="910" as="sourcePoint" />
            <mxPoint x="440" y="880" as="targetPoint" />
          </mxGeometry>
        </mxCell>
        <mxCell id="IiXShuAjWkJ-amn_LctJ-45" value="&lt;font style=&quot;font-size: 9px;&quot;&gt;Execute&lt;/font&gt;" style="edgeLabel;html=1;align=center;verticalAlign=middle;resizable=0;points=[];" vertex="1" connectable="0" parent="IiXShuAjWkJ-amn_LctJ-44">
          <mxGeometry x="-0.0724" relative="1" as="geometry">
            <mxPoint as="offset" />
          </mxGeometry>
        </mxCell>
      </root>
    </mxGraphModel>
  </diagram>
</mxfile>
